{
  "accessors": [
    {
      "bufferView": 2,
      "componentType": 5126,
      "count": 642,
      "max": [
        125.68672180175781,
        125.68672180175781,
        100.03636169433594
      ],
      "min": [
        -125.68672180175781,
        -125.68672180175781,
        -5.157973289489746
      ],
      "type": "VEC3"
    },
    {
      "bufferView": 2,
      "byteOffset": 7704,
      "componentType": 5126,
      "count": 642,
      "max": [
        0.9719513654708862,
        0.9719513654708862,
        1.0
      ],
      "min": [
        -0.9719513654708862,
        -0.9723937511444092,
        -1.0
      ],
      "type": "VEC3"
    },
    {
      "bufferView": 3,
      "componentType": 5126,
      "count": 642,
      "max": [
        0.9698381423950195,
        0.9783991575241089,
        0.9703342318534851,
        1.0
      ],
      "min": [
        -0.9999777674674988,
        -0.9996216893196106,
        -0.9684927463531494,
        -1.0
      ],
      "type": "VEC4"
    },
    {
      "bufferView": 1,
      "componentType": 5126,
      "count": 642,
      "max": [
        0.9863854050636292,
        0.47004202008247375
      ],
      "min": [
        0.011455529369413853,
        0.0068455166183412075
      ],
      "type": "VEC2"
    },
    {
      "bufferView": 0,
      "componentType": 5125,
      "count": 3648,
      "type": "SCALAR"
    },
    {
      "bufferView": 2,
      "byteOffset": 15408,
      "componentType": 5126,
      "count": 289,
      "max": [
        86.29443359375,
        86.29443359375,
        1.1316148629703093e-05
      ],
      "min": [
        -86.29443359375,
        -86.29443359375,
        -49.04878234863281
      ],
      "type": "VEC3"
    },
    {
      "bufferView": 2,
      "byteOffset": 18876,
      "componentType": 5126,
      "count": 289,
      "max": [
        0.9993798136711121,
        0.9993798136711121,
        -0.03521374240517616
      ],
      "min": [
        -0.9993798136711121,
        -0.9993798136711121,
        -1.0
      ],
      "type": "VEC3"
    },
    {
      "bufferView": 3,
      "byteOffset": 10272,
      "componentType": 5126,
      "count": 289,
      "max": [
        0.9794672727584839,
        0.9992372989654541,
        0.9721314311027527,
        1.0
      ],
      "min": [
        -0.9999606609344482,
        -0.9786922335624695,
        -0.97105473279953,
        1.0
      ],
      "type": "VEC4"
    },
    {
      "bufferView": 1,
      "byteOffset": 5136,
      "componentType": 5126,
      "count": 289,
      "max": [
        0.9783510565757751,
        0.732336163520813
      ],
      "min": [
        0.772388756275177,
        0.5224487781524658
      ],
      "type": "VEC2"
    },
    {
      "bufferView": 0,
      "byteOffset": 14592,
      "componentType": 5125,
      "count": 1632,
      "type": "SCALAR"
    },
    {
      "bufferView": 2,
      "byteOffset": 22344,
      "componentType": 5126,
      "count": 1144,
      "max": [
        95.98784637451172,
        63.03465270996094,
        13.077667236328125
      ],
      "min": [
        -58.89285659790039,
        -59.51370620727539,
        -342.70672607421875
      ],
      "type": "VEC3"
    },
    {
      "bufferView": 2,
      "byteOffset": 36072,
      "componentType": 5126,
      "count": 1144,
      "max": [
        0.9813613891601563,
        0.9979749917984009,
        0.7647038698196411
      ],
      "min": [
        -0.9978430867195129,
        -0.9800602197647095,
        -0.5891860127449036
      ],
      "type": "VEC3"
    },
    {
      "bufferView": 3,
      "byteOffset": 14896,
      "componentType": 5126,
      "count": 1144,
      "max": [
        0.9999834895133972,
        0.999996542930603,
        0.9499828219413757,
        1.0
      ],
      "min": [
        -0.9999842643737793,
        -0.9999909996986389,
        -0.90152508020401,
        1.0
      ],
      "type": "VEC4"
    },
    {
      "bufferView": 1,
      "byteOffset": 7448,
      "componentType": 5126,
      "count": 1144,
      "max": [
        0.9963678121566772,
        0.9757711291313171
      ],
      "min": [
        0.0005498528480529785,
        0.012957866303622723
      ],
      "type": "VEC2"
    },
    {
      "bufferView": 0,
      "byteOffset": 21120,
      "componentType": 5125,
      "count": 3120,
      "type": "SCALAR"
    },
    {
      "bufferView": 2,
      "byteOffset": 49800,
      "componentType": 5126,
      "count": 405,
      "max": [
        229.15919494628906,
        103.46971130371094,
        0.3200836181640625
      ],
      "min": [
        -101.99903869628906,
        -103.46969604492188,
        -516.6060791015625
      ],
      "type": "VEC3"
    },
    {
      "bufferView": 2,
      "byteOffset": 54660,
      "componentType": 5126,
      "count": 405,
      "max": [
        0.998495876789093,
        0.9987853169441223,
        0.6050883531570435
      ],
      "min": [
        -0.9966045022010803,
        -0.998645544052124,
        -0.8065889477729797
      ],
      "type": "VEC3"
    },
    {
      "bufferView": 3,
      "byteOffset": 33200,
      "componentType": 5126,
      "count": 405,
      "max": [
        0.9997327923774719,
        0.9999864101409912,
        0.9042014479637146,
        1.0
      ],
      "min": [
        -0.9978412389755249,
        -0.9982073903083801,
        -0.8321666121482849,
        1.0
      ],
      "type": "VEC4"
    },
    {
      "bufferView": 1,
      "byteOffset": 16600,
      "componentType": 5126,
      "count": 405,
      "max": [
        0.739323616027832,
        0.9942400455474854
      ],
      "min": [
        0.003913410007953644,
        0.42810603976249695
      ],
      "type": "VEC2"
    },
    {
      "bufferView": 0,
      "byteOffset": 33600,
      "componentType": 5125,
      "count": 1512,
      "type": "SCALAR"
    }
  ],
  "asset": {
    "extras": {
      "author": "milkfromsaturn (https://sketchfab.com/milkfromsaturn)",
      "license": "CC-BY-4.0 (http://creativecommons.org/licenses/by/4.0/)",
      "source": "https://sketchfab.com/3d-models/jellyfish-807729ed9cf84372955fe383693ed743",
      "title": "Jellyfish"
    },
    "generator": "Sketchfab-12.78.0",
    "version": "2.0"
  },
  "bufferViews": [
    {
      "buffer": 0,
      "byteLength": 39648,
      "name": "floatBufferViews",
      "target": 34963
    },
    {
      "buffer": 0,
      "byteLength": 19840,
      "byteOffset": 39648,
      "byteStride": 8,
      "name": "floatBufferViews",
      "target": 34962
    },
    {
      "buffer": 0,
      "byteLength": 59520,
      "byteOffset": 59488,
      "byteStride": 12,
      "name": "floatBufferViews",
      "target": 34962
    },
    {
      "buffer": 0,
      "byteLength": 39680,
      "byteOffset": 119008,
      "byteStride": 16,
      "name": "floatBufferViews",
      "target": 34962
    }
  ],
  "buffers": [
    {
      "byteLength": 158688,
      "uri": "scene.bin"
    }
  ],
  "extensionsUsed": [
    "KHR_materials_clearcoat"
  ],
  "images": [
    {
      "uri": "textures/Material_4_baseColor.png"
    },
    {
      "uri": "textures/Material_4_normal.png"
    },
    {
      "uri": "textures/Material_5_baseColor.png"
    },
    {
      "uri": "textures/Material_5_normal.png"
    }
  ],
  "materials": [
    {
      "alphaMode": "BLEND",
      "doubleSided": true,
      "extensions": {
        "KHR_materials_clearcoat": {
          "clearcoatFactor": 1.0,
          "clearcoatNormalTexture": {
            "index": 1
          },
          "clearcoatRoughnessFactor": 0.0
        }
      },
      "name": "Material_4",
      "normalTexture": {
        "index": 1
      },
      "pbrMetallicRoughness": {
        "baseColorTexture": {
          "index": 0
        },
        "metallicFactor": 0.5
      }
    },
    {
      "alphaMode": "BLEND",
      "doubleSided": true,
      "name": "Material_5",
      "normalTexture": {
        "index": 3
      },
      "pbrMetallicRoughness": {
        "baseColorTexture": {
          "index": 2
        },
        "roughnessFactor": 0.4629404931105407
      }
    }
  ],
  "meshes": [
    {
      "name": "Cap_Material #4_0",
      "primitives": [
        {
          "attributes": {
            "NORMAL": 1,
            "POSITION": 0,
            "TANGENT": 2,
            "TEXCOORD_0": 3
          },
          "indices": 4,
          "material": 0,
          "mode": 4
        }
      ]
    },
    {
      "name": "Belly_Material #4_0",
      "primitives": [
        {
          "attributes": {
            "NORMAL": 6,
            "POSITION": 5,
            "TANGENT": 7,
            "TEXCOORD_0": 8
          },
          "indices": 9,
          "material": 0,
          "mode": 4
        }
      ]
    },
    {
      "name": "Foot_Material #5_0",
      "primitives": [
        {
          "attributes": {
            "NORMAL": 11,
            "POSITION": 10,
            "TANGENT": 12,
            "TEXCOORD_0": 13
          },
          "indices": 14,
          "material": 1,
          "mode": 4
        }
      ]
    },
    {
      "name": "Arms_Material #4_0",
      "primitives": [
        {
          "attributes": {
            "NORMAL": 16,
            "POSITION": 15,
            "TANGENT": 17,
            "TEXCOORD_0": 18
          },
          "indices": 19,
          "material": 0,
          "mode": 4
        }
      ]
    }
  ],
  "nodes": [
    {
      "children": [
        1
      ],
      "matrix": [
        1.0,
        0.0,
        0.0,
        0.0,
        0.0,
        2.220446049250313e-16,
        -1.0,
        0.0,
        0.0,
        1.0,
        2.220446049250313e-16,
        0.0,
        0.0,
        0.0,
        0.0,
        1.0
      ],
      "name": "Sketchfab_model"
    },
    {
      "children": [
        2
      ],
      "matrix": [
        0.009999999776482582,
        0.0,
        0.0,
        0.0,
        0.0,
        0.0,
        0.009999999776482582,
        0.0,
        0.0,
        -0.009999999776482582,
        0.0,
        0.0,
        0.0,
        0.0,
        0.0,
        1.0
      ],
      "name": "575dcf956fdd4a24a63ffadea122dd7c.fbx"
    },
    {
      "children": [
        3
      ],
      "name": "RootNode"
    },
    {
      "children": [
        4,
        6,
        8,
        10
      ],
      "matrix": [
        1.0,
        0.0,
        0.0,
        0.0,
        0.0,
        2.220446049250313e-16,
        -1.0,
        0.0,
        0.0,
        1.0,
        2.220446049250313e-16,
        0.0,
        0.0,
        0.0,
        0.0,
        1.0
      ],
      "name": "Point001"
    },
    {
      "children": [
        5
      ],
      "matrix": [
        1.0,
        0.0,
        0.0,
        0.0,
        0.0,
        1.0,
        0.0,
        0.0,
        0.0,
        0.0,
        1.0,
        0.0,
        0.0,
        0.0,
        585.9893798828125,
        1.0
      ],
      "name": "Cap"
    },
    {
      "mesh": 0,
      "name": "Cap_Material #4_0"
    },
    {
      "children": [
        7
      ],
      "matrix": [
        1.0,
        0.0,
        0.0,
        0.0,
        0.0,
        1.0,
        0.0,
        0.0,
        0.0,
        0.0,
        1.0,
        0.0,
        0.0,
        0.0,
        651.0726928710938,
        1.0
      ],
      "name": "Belly"
    },
    {
      "mesh": 1,
      "name": "Belly_Material #4_0"
    },
    {
      "children": [
        9
      ],
      "matrix": [
        1.0,
        0.0,
        0.0,
        0.0,
        0.0,
        1.0,
        0.0,
        0.0,
        0.0,
        0.0,
        1.0,
        0.0,
        0.0,
        0.0,
        607.3116455078125,
        1.0
      ],
      "name": "Foot"
    },
    {
      "mesh": 2,
      "name": "Foot_Material #5_0"
    },
    {
      "children": [
        11
      ],
      "matrix": [
        1.0,
        0.0,
        0.0,
        0.0,
        0.0,
        1.0,
        0.0,
        0.0,
        0.0,
        0.0,
        1.0,
        0.0,
        0.0,
        0.0,
        625.9922485351563,
        1.0
      ],
      "name": "Arms"
    },
    {
      "mesh": 3,
      "name": "Arms_Material #4_0"
    }
  ],
  "samplers": [
    {
      "magFilter": 9729,
      "minFilter": 9987,
      "wrapS": 10497,
      "wrapT": 10497
    }
  ],
  "scene": 0,
  "scenes": [
    {
      "name": "Sketchfab_Scene",
      "nodes": [
        0
      ]
    }
  ],
  "textures": [
    {
      "sampler": 0,
      "source": 0
    },
    {
      "sampler": 0,
      "source": 1
    },
    {
      "sampler": 0,
      "source": 2
    },
    {
      "sampler": 0,
      "source": 3
    }
  ]
}
